<mxfile host="app.diagrams.net" modified="2024-05-06T10:58:28.155Z" agent="Mozilla/5.0 (Windows NT 10.0; Win64; x64) AppleWebKit/537.36 (KHTML, like Gecko) Chrome/124.0.0.0 Safari/537.36" etag="pmYFB3d_xrVKCUr-tuTZ" scale="0.8" border="15" version="24.3.1" type="device">
  <diagram name="Page-1" id="S_Q8nWeu-eqvwCNO-Pz2">
    <mxGraphModel dx="445" dy="549" grid="1" gridSize="10" guides="1" tooltips="1" connect="1" arrows="1" fold="1" page="1" pageScale="1" pageWidth="827" pageHeight="1169" math="0" shadow="0">
      <root>
        <mxCell id="0" />
        <mxCell id="1" parent="0" />
        <mxCell id="DzrJmRy5Vq4GtP9a1xdO-40" style="edgeStyle=orthogonalEdgeStyle;rounded=0;orthogonalLoop=1;jettySize=auto;html=1;" parent="1" source="DzrJmRy5Vq4GtP9a1xdO-43" edge="1">
          <mxGeometry relative="1" as="geometry">
            <mxPoint x="1140" y="900" as="targetPoint" />
            <Array as="points">
              <mxPoint x="1140" y="830" />
            </Array>
          </mxGeometry>
        </mxCell>
        <mxCell id="DzrJmRy5Vq4GtP9a1xdO-41" style="edgeStyle=orthogonalEdgeStyle;rounded=0;orthogonalLoop=1;jettySize=auto;html=1;entryX=0.5;entryY=0;entryDx=0;entryDy=0;" parent="1" source="DzrJmRy5Vq4GtP9a1xdO-43" target="DzrJmRy5Vq4GtP9a1xdO-54" edge="1">
          <mxGeometry relative="1" as="geometry" />
        </mxCell>
        <mxCell id="DzrJmRy5Vq4GtP9a1xdO-42" style="edgeStyle=elbowEdgeStyle;rounded=0;orthogonalLoop=1;jettySize=auto;html=1;exitX=1;exitY=0.5;exitDx=0;exitDy=0;elbow=vertical;entryX=0.448;entryY=-0.024;entryDx=0;entryDy=0;entryPerimeter=0;" parent="1" source="DzrJmRy5Vq4GtP9a1xdO-43" target="DzrJmRy5Vq4GtP9a1xdO-50" edge="1">
          <mxGeometry relative="1" as="geometry">
            <mxPoint x="1490" y="830" as="targetPoint" />
            <Array as="points">
              <mxPoint x="1450" y="830" />
            </Array>
          </mxGeometry>
        </mxCell>
        <mxCell id="DzrJmRy5Vq4GtP9a1xdO-43" value="&lt;font style=&quot;font-size: 17px;&quot;&gt;Transmission&amp;nbsp;&lt;/font&gt;" style="shape=hexagon;perimeter=hexagonPerimeter2;whiteSpace=wrap;html=1;fixedSize=1;opacity=30;strokeWidth=3;strokeColor=default;" parent="1" vertex="1">
          <mxGeometry x="1260" y="790" width="120" height="80" as="geometry" />
        </mxCell>
        <mxCell id="DzrJmRy5Vq4GtP9a1xdO-44" style="edgeStyle=orthogonalEdgeStyle;rounded=0;orthogonalLoop=1;jettySize=auto;html=1;" parent="1" source="DzrJmRy5Vq4GtP9a1xdO-46" edge="1">
          <mxGeometry relative="1" as="geometry">
            <mxPoint x="1145" y="1010" as="targetPoint" />
          </mxGeometry>
        </mxCell>
        <mxCell id="y22iHl7WnLabTxwsfmwX-11" style="edgeStyle=orthogonalEdgeStyle;rounded=0;orthogonalLoop=1;jettySize=auto;html=1;exitX=0;exitY=0.5;exitDx=0;exitDy=0;entryX=0;entryY=0.5;entryDx=0;entryDy=0;" edge="1" parent="1" source="DzrJmRy5Vq4GtP9a1xdO-46" target="DzrJmRy5Vq4GtP9a1xdO-64">
          <mxGeometry relative="1" as="geometry">
            <mxPoint x="1050" y="925" as="sourcePoint" />
            <mxPoint x="1070" y="1200" as="targetPoint" />
            <Array as="points">
              <mxPoint x="1000" y="925" />
              <mxPoint x="1000" y="1200" />
            </Array>
          </mxGeometry>
        </mxCell>
        <mxCell id="DzrJmRy5Vq4GtP9a1xdO-46" value="&lt;font style=&quot;font-size: 17px;&quot;&gt;Acknowledgement&lt;/font&gt;" style="ellipse;whiteSpace=wrap;html=1;" parent="1" vertex="1">
          <mxGeometry x="1070" y="900" width="150" height="50" as="geometry" />
        </mxCell>
        <mxCell id="DzrJmRy5Vq4GtP9a1xdO-48" style="edgeStyle=orthogonalEdgeStyle;rounded=0;orthogonalLoop=1;jettySize=auto;html=1;exitX=1;exitY=0.5;exitDx=0;exitDy=0;entryX=1;entryY=0.75;entryDx=0;entryDy=0;" parent="1" source="DzrJmRy5Vq4GtP9a1xdO-50" target="DzrJmRy5Vq4GtP9a1xdO-66" edge="1">
          <mxGeometry relative="1" as="geometry">
            <mxPoint x="1590" y="1200" as="targetPoint" />
          </mxGeometry>
        </mxCell>
        <mxCell id="DzrJmRy5Vq4GtP9a1xdO-49" style="edgeStyle=orthogonalEdgeStyle;rounded=0;orthogonalLoop=1;jettySize=auto;html=1;entryX=0;entryY=1;entryDx=0;entryDy=0;exitX=0.661;exitY=-0.008;exitDx=0;exitDy=0;exitPerimeter=0;" parent="1" source="DzrJmRy5Vq4GtP9a1xdO-50" target="DzrJmRy5Vq4GtP9a1xdO-64" edge="1">
          <mxGeometry relative="1" as="geometry">
            <mxPoint x="1000" y="1220" as="targetPoint" />
            <mxPoint x="1520" y="900" as="sourcePoint" />
            <Array as="points">
              <mxPoint x="1529" y="880" />
              <mxPoint x="1630" y="880" />
              <mxPoint x="1630" y="1290" />
              <mxPoint x="1000" y="1290" />
              <mxPoint x="1000" y="1230" />
            </Array>
          </mxGeometry>
        </mxCell>
        <mxCell id="y22iHl7WnLabTxwsfmwX-5" style="edgeStyle=orthogonalEdgeStyle;rounded=0;orthogonalLoop=1;jettySize=auto;html=1;exitX=0.5;exitY=1;exitDx=0;exitDy=0;" edge="1" parent="1" source="DzrJmRy5Vq4GtP9a1xdO-50" target="DzrJmRy5Vq4GtP9a1xdO-63">
          <mxGeometry relative="1" as="geometry" />
        </mxCell>
        <mxCell id="DzrJmRy5Vq4GtP9a1xdO-50" value="&lt;font style=&quot;font-size: 17px;&quot;&gt;Acknowledgement&lt;/font&gt;" style="ellipse;whiteSpace=wrap;html=1;" parent="1" vertex="1">
          <mxGeometry x="1430" y="900" width="150" height="50" as="geometry" />
        </mxCell>
        <mxCell id="DzrJmRy5Vq4GtP9a1xdO-51" style="edgeStyle=orthogonalEdgeStyle;rounded=0;orthogonalLoop=1;jettySize=auto;html=1;exitX=0.5;exitY=1;exitDx=0;exitDy=0;entryX=0.5;entryY=0;entryDx=0;entryDy=0;" parent="1" source="DzrJmRy5Vq4GtP9a1xdO-54" edge="1" target="DzrJmRy5Vq4GtP9a1xdO-60">
          <mxGeometry relative="1" as="geometry">
            <mxPoint x="1320.3529411764707" y="1010" as="targetPoint" />
          </mxGeometry>
        </mxCell>
        <mxCell id="DzrJmRy5Vq4GtP9a1xdO-52" style="edgeStyle=elbowEdgeStyle;rounded=0;orthogonalLoop=1;jettySize=auto;html=1;elbow=vertical;entryX=0.928;entryY=0.027;entryDx=0;entryDy=0;entryPerimeter=0;exitX=0.087;exitY=0.816;exitDx=0;exitDy=0;exitPerimeter=0;" parent="1" source="DzrJmRy5Vq4GtP9a1xdO-54" target="DzrJmRy5Vq4GtP9a1xdO-64" edge="1">
          <mxGeometry relative="1" as="geometry">
            <mxPoint x="1210" y="1175" as="targetPoint" />
            <mxPoint x="1230" y="920" as="sourcePoint" />
            <Array as="points">
              <mxPoint x="1230" y="950" />
              <mxPoint x="1220" y="960" />
              <mxPoint x="1210" y="980" />
              <mxPoint x="1296.04" y="1007.4000000000001" />
              <mxPoint x="1256.04" y="1037.4" />
            </Array>
          </mxGeometry>
        </mxCell>
        <mxCell id="DzrJmRy5Vq4GtP9a1xdO-54" value="&lt;font style=&quot;font-size: 16px;&quot;&gt;Acknowledgement&lt;/font&gt;" style="ellipse;whiteSpace=wrap;html=1;" parent="1" vertex="1">
          <mxGeometry x="1245" y="900" width="150" height="50" as="geometry" />
        </mxCell>
        <mxCell id="DzrJmRy5Vq4GtP9a1xdO-56" style="edgeStyle=orthogonalEdgeStyle;rounded=0;orthogonalLoop=1;jettySize=auto;html=1;exitX=1;exitY=0.5;exitDx=0;exitDy=0;entryX=0;entryY=0.5;entryDx=0;entryDy=0;" parent="1" source="DzrJmRy5Vq4GtP9a1xdO-57" target="DzrJmRy5Vq4GtP9a1xdO-65" edge="1">
          <mxGeometry relative="1" as="geometry">
            <mxPoint x="1240" y="1200" as="targetPoint" />
            <Array as="points">
              <mxPoint x="1240" y="1045" />
              <mxPoint x="1240" y="1200" />
            </Array>
          </mxGeometry>
        </mxCell>
        <mxCell id="DzrJmRy5Vq4GtP9a1xdO-57" value="&lt;font style=&quot;font-size: 15px;&quot;&gt;register&amp;gt;=α1&lt;/font&gt;" style="rhombus;whiteSpace=wrap;html=1;" parent="1" vertex="1">
          <mxGeometry x="1090" y="1010" width="105" height="70" as="geometry" />
        </mxCell>
        <mxCell id="DzrJmRy5Vq4GtP9a1xdO-58" style="edgeStyle=orthogonalEdgeStyle;rounded=0;orthogonalLoop=1;jettySize=auto;html=1;exitX=0.5;exitY=1;exitDx=0;exitDy=0;" parent="1" source="DzrJmRy5Vq4GtP9a1xdO-60" edge="1">
          <mxGeometry relative="1" as="geometry">
            <mxPoint x="1320.3529411764707" y="1170" as="targetPoint" />
          </mxGeometry>
        </mxCell>
        <mxCell id="y22iHl7WnLabTxwsfmwX-7" style="edgeStyle=orthogonalEdgeStyle;rounded=0;orthogonalLoop=1;jettySize=auto;html=1;exitX=1;exitY=0.5;exitDx=0;exitDy=0;entryX=0;entryY=0.5;entryDx=0;entryDy=0;" edge="1" parent="1" source="DzrJmRy5Vq4GtP9a1xdO-60" target="DzrJmRy5Vq4GtP9a1xdO-66">
          <mxGeometry relative="1" as="geometry">
            <mxPoint x="1410" y="1200" as="targetPoint" />
          </mxGeometry>
        </mxCell>
        <mxCell id="DzrJmRy5Vq4GtP9a1xdO-60" value="&lt;font style=&quot;font-size: 14px;&quot;&gt;register&amp;gt;=α2&lt;/font&gt;" style="rhombus;whiteSpace=wrap;html=1;" parent="1" vertex="1">
          <mxGeometry x="1271" y="1020" width="100" height="70" as="geometry" />
        </mxCell>
        <mxCell id="DzrJmRy5Vq4GtP9a1xdO-61" style="edgeStyle=orthogonalEdgeStyle;rounded=0;orthogonalLoop=1;jettySize=auto;html=1;exitX=0.5;exitY=1;exitDx=0;exitDy=0;" parent="1" source="DzrJmRy5Vq4GtP9a1xdO-63" edge="1">
          <mxGeometry relative="1" as="geometry">
            <mxPoint x="1504.4705882352941" y="1170" as="targetPoint" />
          </mxGeometry>
        </mxCell>
        <mxCell id="DzrJmRy5Vq4GtP9a1xdO-62" style="edgeStyle=elbowEdgeStyle;rounded=0;orthogonalLoop=1;jettySize=auto;html=1;exitX=0;exitY=0.5;exitDx=0;exitDy=0;elbow=vertical;entryX=0.75;entryY=0;entryDx=0;entryDy=0;" parent="1" source="DzrJmRy5Vq4GtP9a1xdO-63" edge="1">
          <mxGeometry relative="1" as="geometry">
            <mxPoint x="1332.5" y="1170" as="targetPoint" />
            <mxPoint x="1445" y="1040" as="sourcePoint" />
            <Array as="points">
              <mxPoint x="1337.5" y="1105" />
            </Array>
          </mxGeometry>
        </mxCell>
        <mxCell id="DzrJmRy5Vq4GtP9a1xdO-63" value="&lt;font style=&quot;font-size: 15px;&quot;&gt;register&amp;gt;=β&lt;/font&gt;" style="rhombus;whiteSpace=wrap;html=1;" parent="1" vertex="1">
          <mxGeometry x="1457.5" y="1010" width="95" height="70" as="geometry" />
        </mxCell>
        <mxCell id="DzrJmRy5Vq4GtP9a1xdO-64" value="&lt;font style=&quot;font-size: 17px;&quot;&gt;ARQ&lt;/font&gt;" style="rounded=0;whiteSpace=wrap;html=1;" parent="1" vertex="1">
          <mxGeometry x="1090" y="1170" width="120" height="60" as="geometry" />
        </mxCell>
        <mxCell id="DzrJmRy5Vq4GtP9a1xdO-65" value="&lt;font style=&quot;font-size: 17px;&quot;&gt;HARQ 1&lt;/font&gt;" style="rounded=0;whiteSpace=wrap;html=1;" parent="1" vertex="1">
          <mxGeometry x="1260" y="1170" width="130" height="60" as="geometry" />
        </mxCell>
        <mxCell id="DzrJmRy5Vq4GtP9a1xdO-66" value="&lt;font style=&quot;font-size: 17px;&quot;&gt;HARQ 2&lt;/font&gt;" style="rounded=0;whiteSpace=wrap;html=1;" parent="1" vertex="1">
          <mxGeometry x="1445" y="1170" width="120" height="60" as="geometry" />
        </mxCell>
        <mxCell id="DzrJmRy5Vq4GtP9a1xdO-67" value="&lt;font style=&quot;font-size: 16px;&quot;&gt;no&lt;/font&gt;" style="text;html=1;align=center;verticalAlign=middle;whiteSpace=wrap;rounded=0;" parent="1" vertex="1">
          <mxGeometry x="1090" y="1090" width="60" height="30" as="geometry" />
        </mxCell>
        <mxCell id="DzrJmRy5Vq4GtP9a1xdO-69" value="&lt;font style=&quot;font-size: 17px;&quot;&gt;yes&lt;/font&gt;" style="text;html=1;align=center;verticalAlign=middle;whiteSpace=wrap;rounded=0;" parent="1" vertex="1">
          <mxGeometry x="1395" y="1170" width="60" height="30" as="geometry" />
        </mxCell>
        <mxCell id="DzrJmRy5Vq4GtP9a1xdO-70" value="&lt;font style=&quot;font-size: 16px;&quot;&gt;no&lt;/font&gt;" style="text;html=1;align=center;verticalAlign=middle;whiteSpace=wrap;rounded=0;" parent="1" vertex="1">
          <mxGeometry x="1260" y="1100" width="60" height="30" as="geometry" />
        </mxCell>
        <mxCell id="DzrJmRy5Vq4GtP9a1xdO-71" value="&lt;font style=&quot;font-size: 17px;&quot;&gt;no&lt;/font&gt;" style="text;html=1;align=center;verticalAlign=middle;whiteSpace=wrap;rounded=0;" parent="1" vertex="1">
          <mxGeometry x="1500" y="1100" width="60" height="30" as="geometry" />
        </mxCell>
        <mxCell id="DzrJmRy5Vq4GtP9a1xdO-72" value="&lt;font style=&quot;font-size: 15px;&quot;&gt;yes&lt;/font&gt;" style="text;html=1;align=center;verticalAlign=middle;whiteSpace=wrap;rounded=0;" parent="1" vertex="1">
          <mxGeometry x="1410" y="1080" width="60" height="30" as="geometry" />
        </mxCell>
        <mxCell id="DzrJmRy5Vq4GtP9a1xdO-73" value="&lt;font style=&quot;font-size: 16px;&quot;&gt;ACK&lt;/font&gt;" style="text;html=1;align=center;verticalAlign=middle;whiteSpace=wrap;rounded=0;" parent="1" vertex="1">
          <mxGeometry x="1000" y="990" width="60" height="30" as="geometry" />
        </mxCell>
        <mxCell id="DzrJmRy5Vq4GtP9a1xdO-74" value="&lt;font style=&quot;font-size: 16px;&quot;&gt;ACK+&lt;/font&gt;" style="text;html=1;align=center;verticalAlign=middle;whiteSpace=wrap;rounded=0;" parent="1" vertex="1">
          <mxGeometry x="1030" y="1160" width="60" height="30" as="geometry" />
        </mxCell>
        <mxCell id="DzrJmRy5Vq4GtP9a1xdO-75" value="&lt;font style=&quot;font-size: 17px;&quot;&gt;ACK+&lt;/font&gt;" style="text;html=1;align=center;verticalAlign=middle;whiteSpace=wrap;rounded=0;" parent="1" vertex="1">
          <mxGeometry x="1200" y="950" width="60" height="30" as="geometry" />
        </mxCell>
        <mxCell id="DzrJmRy5Vq4GtP9a1xdO-76" value="&lt;font style=&quot;font-size: 17px;&quot;&gt;ACK&lt;/font&gt;" style="text;html=1;align=center;verticalAlign=middle;whiteSpace=wrap;rounded=0;" parent="1" vertex="1">
          <mxGeometry x="1260" y="970" width="60" height="30" as="geometry" />
        </mxCell>
        <mxCell id="DzrJmRy5Vq4GtP9a1xdO-77" value="&lt;font style=&quot;font-size: 17px;&quot;&gt;NAK&lt;/font&gt;" style="text;html=1;align=center;verticalAlign=middle;whiteSpace=wrap;rounded=0;" parent="1" vertex="1">
          <mxGeometry x="1310" y="950" width="60" height="30" as="geometry" />
        </mxCell>
        <mxCell id="DzrJmRy5Vq4GtP9a1xdO-78" style="edgeStyle=none;rounded=0;orthogonalLoop=1;jettySize=auto;html=1;exitX=0.75;exitY=1;exitDx=0;exitDy=0;" parent="1" edge="1">
          <mxGeometry relative="1" as="geometry">
            <mxPoint x="1085" y="1190" as="sourcePoint" />
            <mxPoint x="1085" y="1190" as="targetPoint" />
          </mxGeometry>
        </mxCell>
        <mxCell id="DzrJmRy5Vq4GtP9a1xdO-79" value="&lt;span style=&quot;color: rgb(0, 0, 0); font-family: Helvetica; font-style: normal; font-variant-ligatures: normal; font-variant-caps: normal; font-weight: 400; letter-spacing: normal; orphans: 2; text-align: center; text-indent: 0px; text-transform: none; widows: 2; word-spacing: 0px; -webkit-text-stroke-width: 0px; background-color: rgb(251, 251, 251); text-decoration-thickness: initial; text-decoration-style: initial; text-decoration-color: initial; float: none; display: inline !important;&quot;&gt;&lt;font style=&quot;font-size: 17px;&quot;&gt;ACK+&lt;/font&gt;&lt;/span&gt;" style="text;whiteSpace=wrap;html=1;" parent="1" vertex="1">
          <mxGeometry x="1555" y="850" width="60" height="40" as="geometry" />
        </mxCell>
        <mxCell id="DzrJmRy5Vq4GtP9a1xdO-80" value="&lt;font style=&quot;font-size: 17px;&quot;&gt;NAK&lt;/font&gt;" style="text;html=1;align=center;verticalAlign=middle;whiteSpace=wrap;rounded=0;" parent="1" vertex="1">
          <mxGeometry x="1552.5" y="960" width="60" height="30" as="geometry" />
        </mxCell>
        <mxCell id="DzrJmRy5Vq4GtP9a1xdO-81" value="&lt;font style=&quot;font-size: 17px;&quot;&gt;ACK&lt;/font&gt;" style="text;html=1;align=center;verticalAlign=middle;whiteSpace=wrap;rounded=0;" parent="1" vertex="1">
          <mxGeometry x="1450" y="960" width="60" height="30" as="geometry" />
        </mxCell>
        <mxCell id="DzrJmRy5Vq4GtP9a1xdO-82" value="&lt;font style=&quot;font-size: 17px;&quot;&gt;NAK&lt;/font&gt;" style="text;html=1;align=center;verticalAlign=middle;whiteSpace=wrap;rounded=0;" parent="1" vertex="1">
          <mxGeometry x="1090" y="960" width="60" height="30" as="geometry" />
        </mxCell>
        <mxCell id="DzrJmRy5Vq4GtP9a1xdO-83" value="&lt;font style=&quot;font-size: 16px;&quot;&gt;yes&lt;/font&gt;" style="text;html=1;align=center;verticalAlign=middle;whiteSpace=wrap;rounded=0;" parent="1" vertex="1">
          <mxGeometry x="1195" y="1020" width="60" height="30" as="geometry" />
        </mxCell>
        <mxCell id="y22iHl7WnLabTxwsfmwX-6" style="edgeStyle=orthogonalEdgeStyle;rounded=0;orthogonalLoop=1;jettySize=auto;html=1;exitX=0.5;exitY=1;exitDx=0;exitDy=0;" edge="1" parent="1" source="DzrJmRy5Vq4GtP9a1xdO-80" target="DzrJmRy5Vq4GtP9a1xdO-80">
          <mxGeometry relative="1" as="geometry" />
        </mxCell>
        <mxCell id="y22iHl7WnLabTxwsfmwX-10" style="edgeStyle=orthogonalEdgeStyle;rounded=0;orthogonalLoop=1;jettySize=auto;html=1;exitX=0.5;exitY=1;exitDx=0;exitDy=0;entryX=0.435;entryY=0.047;entryDx=0;entryDy=0;entryPerimeter=0;" edge="1" parent="1" source="DzrJmRy5Vq4GtP9a1xdO-57" target="DzrJmRy5Vq4GtP9a1xdO-64">
          <mxGeometry relative="1" as="geometry" />
        </mxCell>
        <mxCell id="y22iHl7WnLabTxwsfmwX-13" style="edgeStyle=orthogonalEdgeStyle;rounded=0;orthogonalLoop=1;jettySize=auto;html=1;exitX=0;exitY=1;exitDx=0;exitDy=0;" edge="1" parent="1" source="DzrJmRy5Vq4GtP9a1xdO-54">
          <mxGeometry relative="1" as="geometry">
            <mxPoint x="1266" y="1168" as="targetPoint" />
            <Array as="points">
              <mxPoint x="1266" y="1168" />
            </Array>
          </mxGeometry>
        </mxCell>
      </root>
    </mxGraphModel>
  </diagram>
</mxfile>
